<?xml version="1.0" encoding="UTF-8"?>
<svg id="Capa_1" data-name="Capa 1" xmlns="http://www.w3.org/2000/svg" viewBox="0 0 1920 613.44">
  <defs>
    <style>
      .cls-1 {
        fill: #af9115;
      }

      .cls-2 {
        fill: #0f4430;
      }
    </style>
  </defs>
  <path class="cls-2" d="M587.79,306.13c0,137.52-111.79,248.99-249.68,248.99s-249.68-111.48-249.68-248.99S200.22,57.13,338.11,57.13s249.68,111.48,249.68,248.99ZM541.68,348.3l-69.65-64.4-1.02-91.09-45.13-.21-1.02,47.82-87.43-74.45-202.75,182.34,60.94.58,143.48-126.21,96.71,84.43,45.2,42.24,60.67-1.04ZM332.7,349.79l-1.08-41.96-40.52,1.21-1.12,41.04,42.72-.29ZM382.84,350.17l-1.05-42.09-40.11-.08-.99,41.71,42.14.46ZM290.2,359.91l-.04,41.91,42.68.04.04-41.91-42.68-.04ZM382.7,359.85l-41.85.09.09,42.1,41.85-.09-.09-42.1Z"/>
  <g>
    <path class="cls-2" d="M1805.27,257.86c6.81,70.36-45.01,119.51-114.08,121.04-56.59,1.25-109.7-30.2-119.73-88.97-5.62-32.89,1.94-66.7,22.6-91.32,42.27-50.36,132.07-52.56,182.63-7.32,18.89,16.91,26.18,41.88,28.57,66.56ZM1757.98,269.11c0-38.47-31.27-69.65-69.84-69.65s-69.84,31.18-69.84,69.65,31.27,69.65,69.84,69.65,69.84-31.18,69.84-69.65Z"/>
    <path class="cls-2" d="M1290.47,321.77l-111.27.15-21.23,48.79-50.45.17,100.28-210.44,54.11.84,101.82,210.16-49.9,1.51-23.36-51.18ZM1274.12,285.09l-39.11-81.74-39.94,81.9,79.06-.16Z"/>
    <path class="cls-2" d="M836.18,367.02c-50.37,18.75-108.91,10.9-149.85-23.1l25.69-29.8c39.83,30.14,110.45,32.83,116.45,1.68,1.83-9.48-5.64-21.32-16.36-23.5l-44.06-8.93c-21.69-4.4-45.37-9.59-61.41-26.43-24.17-25.38-15.34-69.47,16.88-86.29,44.94-23.45,101.4-17.89,142.64,12.7-7.93,13.96-15.15,23.05-24.54,32.87-39.82-30.36-102.87-22.68-100.82,5.14,2.96,40.13,130.08,8.89,135.02,82.09,1.9,28.18-10.84,52.85-39.66,63.58Z"/>
    <path class="cls-2" d="M969.84,317.58c31.76,27.01,74.6,21.42,104.21-4.29l30.15,28.97c-32.12,32.26-74.9,38.93-117.12,31.59-47.76-8.3-79.68-43.11-85.68-90.95-7.78-62.02,32.36-115.92,94.93-124.04,39.33-5.1,77.76,3.7,107.01,33.54l-30.47,29.63c-27.75-25.97-69.19-31.8-99.59-7.52s-34.17,76.94-3.44,103.07Z"/>
    <polygon class="cls-2" points="1564.88 161.51 1544.07 208.69 1472.02 373.36 1424.68 373.85 1332.66 161.07 1383.85 160.58 1449.57 314.93 1514.1 161.28 1564.88 161.51"/>
  </g>
  <g>
    <path class="cls-1" d="M704.66,458.01h11.11v59.83h-11.11v-59.83Z"/>
    <path class="cls-1" d="M827.83,458.01v59.83h-9.15l-32.99-40.52v40.52h-11.03v-59.83h9.15l32.99,40.52v-40.52h11.03Z"/>
    <path class="cls-1" d="M941.6,517.84l-.09-39.66-19.66,32.82h-4.96l-19.66-32.31v39.15h-10.6v-59.83h9.15l23.76,39.66,23.34-39.66h9.15l.09,59.83h-10.51Z"/>
    <path class="cls-1" d="M1006.74,487.92c0-17.69,13.68-30.77,32.22-30.77s32.23,12.99,32.23,30.77-13.68,30.77-32.23,30.77-32.22-13.08-32.22-30.77ZM1059.99,487.92c0-12.22-8.98-21.03-21.03-21.03s-21.03,8.8-21.03,21.03,8.98,21.03,21.03,21.03,21.03-8.81,21.03-21.03Z"/>
    <path class="cls-1" d="M1178.89,501.6c0,10.26-8.04,16.24-23.42,16.24h-29.75v-59.83h28.04c14.36,0,22.05,6.07,22.05,15.56,0,6.15-3.08,10.68-7.69,13.16,6.41,2.05,10.77,7.1,10.77,14.87ZM1136.83,466.72v16.5h15.73c7.69,0,12.05-2.74,12.05-8.21s-4.36-8.29-12.05-8.29h-15.73ZM1167.69,500.49c0-5.98-4.53-8.63-12.91-8.63h-17.95v17.27h17.95c8.38,0,12.91-2.65,12.91-8.63Z"/>
    <path class="cls-1" d="M1233.51,458.01h11.11v59.83h-11.11v-59.83Z"/>
    <path class="cls-1" d="M1303.52,458.01h11.11v50.43h31.28v9.4h-42.4v-59.83Z"/>
    <path class="cls-1" d="M1397.46,458.01h11.11v59.83h-11.11v-59.83Z"/>
    <path class="cls-1" d="M1506.27,503.99h-29.92l-5.9,13.85h-11.45l26.92-59.83h10.94l27.01,59.83h-11.62l-5.98-13.85ZM1502.59,495.27l-11.28-26.16-11.2,26.16h22.48Z"/>
    <path class="cls-1" d="M1613.37,517.84l-12.22-17.52c-.77.09-1.54.09-2.31.09h-13.51v17.44h-11.11v-59.83h24.62c15.73,0,25.47,8.03,25.47,21.28,0,9.06-4.61,15.73-12.74,18.89l13.76,19.66h-11.97ZM1598.33,467.41h-12.99v23.85h12.99c9.75,0,14.79-4.44,14.79-11.97s-5.04-11.88-14.79-11.88Z"/>
    <path class="cls-1" d="M1679.45,458.01h11.11v59.83h-11.11v-59.83Z"/>
    <path class="cls-1" d="M1788.26,503.99h-29.92l-5.9,13.85h-11.45l26.92-59.83h10.94l27.01,59.83h-11.62l-5.98-13.85ZM1784.58,495.27l-11.28-26.16-11.2,26.16h22.48Z"/>
  </g>
</svg>